<svg width="139" height="23" viewBox="0 0 139 23" fill="none" xmlns="http://www.w3.org/2000/svg">
<path d="M0.829 22.5V0.799999H7.618L11.524 10.317C12.857 13.603 13.384 15.742 13.384 15.742C13.384 15.742 13.973 13.603 15.306 10.317L19.212 0.799999H25.815V22.5H20.886V13.355C20.886 9.79 21.041 7.589 21.041 7.589C21.041 7.589 20.328 9.697 18.995 12.983L15.12 22.5H11.524L7.618 12.983C6.285 9.697 5.603 7.589 5.603 7.589C5.603 7.589 5.758 9.79 5.758 13.355V22.5H0.829ZM35.6677 22.5V0.799999H40.5967V22.5H35.6677ZM50.4351 22.5V0.799999H59.1151C63.3311 0.799999 66.1521 3.404 66.1521 7.403C66.1521 9.759 64.9431 11.867 62.8971 13.045L68.4461 22.5H62.7731L58.0921 14.006H55.3641V22.5H50.4351ZM55.3641 9.821H58.2471C60.1071 9.821 61.2231 8.86 61.2231 7.403C61.2231 5.915 60.1071 4.985 58.2471 4.985H55.3641V9.821ZM85.9395 22.748C79.4915 22.748 74.7175 18.036 74.7175 11.65C74.7175 5.264 79.4915 0.552 85.9395 0.552C92.2945 0.552 97.0685 5.264 97.0685 11.65C97.0685 18.036 92.2945 22.748 85.9395 22.748ZM79.6465 11.65C79.6465 15.618 82.2505 18.563 85.9395 18.563C89.5355 18.563 92.1705 15.618 92.1705 11.65C92.1705 7.682 89.5355 4.737 85.9395 4.737C82.2505 4.737 79.6465 7.682 79.6465 11.65ZM106.035 22.5V0.799999H110.964V22.5H106.035ZM120.803 22.5V0.799999H129.483C133.699 0.799999 136.52 3.404 136.52 7.403C136.52 9.759 135.311 11.867 133.265 13.045L138.814 22.5H133.141L128.46 14.006H125.732V22.5H120.803ZM125.732 9.821H128.615C130.475 9.821 131.591 8.86 131.591 7.403C131.591 5.915 130.475 4.985 128.615 4.985H125.732V9.821Z" fill="black"/>
</svg>
