<svg width="32" height="32" viewBox="0 0 32 32" fill="none" xmlns="http://www.w3.org/2000/svg">
<rect width="32" height="32" fill="black"/>
<path d="M18.7322 15.4116C19.7762 15.0876 20.3882 14.3676 20.3882 12.9276V6.33961C20.3882 4.14361 19.3082 3.09961 17.1482 3.09961H12.3242V28.2996H17.1842C19.3442 28.2996 20.4242 27.2556 20.4242 25.0596V17.5716C20.4242 16.3476 19.8842 15.6996 18.7322 15.4116ZM16.7522 6.37561V13.8636C16.7522 14.0076 16.6802 14.1156 16.5002 14.1156H15.9962V6.08761H16.5002C16.6802 6.08761 16.7522 6.15961 16.7522 6.37561ZM15.9962 16.8876H16.5002C16.7162 16.8876 16.7882 16.9956 16.7882 17.1396V25.0596C16.7882 25.2396 16.7162 25.3116 16.5002 25.3116H15.9962V16.8876Z" fill="url(#paint0_linear_2084_5184)" style="mix-blend-mode:difference"/>
<defs>
<linearGradient id="paint0_linear_2084_5184" x1="16.3742" y1="0.894609" x2="16.3742" y2="25.7796" gradientUnits="userSpaceOnUse">
<stop stop-color="#F50AA7"/>
<stop offset="1" stop-color="#F62132"/>
</linearGradient>
</defs>
</svg>
